# xmcd
#
# Track frame offsets: 
#        180
#        9603
#        19327
#        32240
#        44140
#        54143
#        64044
#        77690
#        89472
#        106644
#        119363
#        134392
#        146437
#        160417
#        170584
#        181341
#        195369
#        203993
#        216487
#        225518
#        235569
#        245691
#        256713
#        269208
#        284092
#        292264
#
# Disc length: 4075 seconds
#
# Revision: 0
# Processed by: cddbd v1.5.1PL0 Copyright (c) Steve Scherf et al.
# Submitted via: ExactAudioCopy v0.95a4
#
DISCID=860fe91a
DTITLE=Willie Nelson - One Stop Beyond
DYEAR=1900
DGENRE=Country
TTITLE0=One step Beyond
TTITLE1=Building Heartaches
TTITLE2=Ijust don't undestand
TTITLE3=Touch me
TTITLE4=I didn't sleep a wink
TTITLE5=Half a man
TTITLE6=Undo the right
TTITLE7=I hope so
TTITLE8=I let my mind wander
TTITLE9=Any old arms won't do
TTITLE10=And so will you my love
TTITLE11=End of understanding
TTITLE12=Home is where you're happy
TTITLE13=Healing hands of time
TTITLE14=I fell sorry for him
TTITLE15=Last letter
TTITLE16=Slow down
TTITLE17=1 Shelter of your hands
TTITLE18=Why are you picking on me
TTITLE19=Ashamed
TTITLE20=Broken promises
TTITLE21=Suffer in Silence
TTITLE22=I can't find the time 
TTITLE23=Face of a fighter
TTITLE24=Things to remenber
TTITLE25=You'll always have someone
EXTD=
EXTT0=
EXTT1=
EXTT2=
EXTT3=
EXTT4=
EXTT5=
EXTT6=
EXTT7=
EXTT8=
EXTT9=
EXTT10=
EXTT11=
EXTT12=
EXTT13=
EXTT14=
EXTT15=
EXTT16=
EXTT17=
EXTT18=
EXTT19=
EXTT20=
EXTT21=
EXTT22=
EXTT23=
EXTT24=
EXTT25=
PLAYORDER=
